<?xml version="1.0" encoding="UTF-8" standalone="no"?>
<!DOCTYPE svg PUBLIC "-//W3C//DTD SVG 1.1//EN" "http://www.w3.org/Graphics/SVG/1.1/DTD/svg11.dtd">
<svg width="100%" height="100%" viewBox="0 0 25 25" version="1.1" xmlns="http://www.w3.org/2000/svg" xmlns:xlink="http://www.w3.org/1999/xlink" xml:space="preserve" xmlns:serif="http://www.serif.com/" style="fill-rule:evenodd;clip-rule:evenodd;stroke-linejoin:round;stroke-miterlimit:2;">
    <rect id="Boundary" x="0" y="0" width="25" height="25" style="fill:none;"/>
    <g id="Group_19" transform="matrix(0.819782,0,0,0.819782,3.87261,23.5671)">
        <g id="Group_19-2">
            <clipPath id="_clip1">
                <path d="M17.667,-24.81L16.477,-24.81L16.477,-25C16.477,-25.549 16.026,-26 15.477,-26L5.577,-26C5.028,-26 4.577,-25.549 4.577,-25L4.577,-24.81L3.381,-24.81C2.075,-24.81 1,-23.735 1,-22.429L1,-3.381C1,-2.075 2.075,-1 3.381,-1L17.667,-1C18.973,-1 20.048,-2.075 20.048,-3.381L20.048,-22.429C20.048,-23.735 18.973,-24.81 17.667,-24.81ZM5.767,-24.81L15.291,-24.81L15.291,-23.62L5.762,-23.62L5.767,-24.81ZM18.867,-3.381C18.866,-2.729 18.329,-2.192 17.677,-2.191L3.381,-2.191C2.729,-2.192 2.192,-2.729 2.191,-3.381L2.191,-22.429C2.192,-23.081 2.729,-23.618 3.381,-23.619L4.571,-23.619L4.571,-22.429L16.471,-22.429L16.471,-23.619L17.661,-23.619C18.313,-23.618 18.85,-23.081 18.851,-22.429L18.867,-3.381ZM5.167,-18.857L15.881,-18.857C16.21,-18.857 16.481,-18.586 16.481,-18.257C16.481,-17.928 16.21,-17.657 15.881,-17.657L5.167,-17.657C4.838,-17.657 4.567,-17.928 4.567,-18.257C4.567,-18.586 4.838,-18.857 5.167,-18.857ZM5.167,-13.286L15.881,-13.286C16.21,-13.286 16.481,-13.015 16.481,-12.686C16.481,-12.357 16.21,-12.086 15.881,-12.086L5.167,-12.086C4.838,-12.086 4.567,-12.357 4.567,-12.686C4.567,-13.015 4.838,-13.286 5.167,-13.286ZM5.167,-7.715L15.881,-7.715C16.21,-7.715 16.481,-7.444 16.481,-7.115C16.481,-6.786 16.21,-6.515 15.881,-6.515L5.167,-6.515C4.838,-6.515 4.567,-6.786 4.567,-7.115C4.568,-7.444 4.838,-7.714 5.167,-7.714L5.167,-7.715Z"/>
            </clipPath>
            <g clip-path="url(#_clip1)">
                <rect id="Path_16" x="0" y="-27" width="21.048" height="27" style="fill-rule:nonzero;stroke:black;stroke-width:1.22px;"/>
            </g>
        </g>
        <g id="Group_20" transform="matrix(1,0,0,1,1,-26)">
            <path id="Path_18" d="M16.667,1.19L15.477,1.19L15.477,1C15.477,0.451 15.026,0 14.477,0L4.577,0C4.028,0 3.577,0.451 3.577,1L3.577,1.19L2.381,1.19C1.075,1.19 -0,2.265 0,3.571L0,22.619C0,23.925 1.075,25 2.381,25L16.667,25C17.973,25 19.048,23.925 19.048,22.619L19.048,3.571C19.048,2.265 17.973,1.19 16.667,1.19ZM4.767,1.19L14.291,1.19L14.291,2.38L4.762,2.38L4.767,1.19ZM17.867,22.619C17.866,23.271 17.329,23.808 16.677,23.809L2.381,23.809C1.729,23.808 1.192,23.271 1.191,22.619L1.191,3.571C1.192,2.919 1.729,2.382 2.381,2.381L3.571,2.381L3.571,3.571L15.471,3.571L15.471,2.381L16.661,2.381C17.313,2.382 17.85,2.919 17.851,3.571L17.867,22.619ZM4.167,7.143L14.881,7.143C14.907,7.14 14.932,7.138 14.958,7.138C15.287,7.138 15.558,7.409 15.558,7.738C15.558,8.067 15.287,8.338 14.958,8.338C14.932,8.338 14.907,8.336 14.881,8.333L4.167,8.333C4.141,8.336 4.116,8.338 4.09,8.338C3.761,8.338 3.49,8.067 3.49,7.738C3.49,7.409 3.761,7.138 4.09,7.138C4.116,7.138 4.141,7.14 4.167,7.143ZM4.167,12.714L14.881,12.714C14.907,12.711 14.932,12.709 14.958,12.709C15.287,12.709 15.558,12.98 15.558,13.309C15.558,13.638 15.287,13.909 14.958,13.909C14.932,13.909 14.907,13.907 14.881,13.904L4.167,13.904C4.141,13.907 4.116,13.909 4.09,13.909C3.761,13.909 3.49,13.638 3.49,13.309C3.49,12.98 3.761,12.709 4.09,12.709C4.116,12.709 4.141,12.711 4.167,12.714ZM4.167,18.285L14.881,18.285C15.179,18.324 15.404,18.58 15.404,18.88C15.404,19.18 15.179,19.436 14.881,19.475L4.167,19.475C3.869,19.436 3.644,19.18 3.644,18.88C3.644,18.58 3.869,18.324 4.167,18.285Z" style="fill:none;fill-rule:nonzero;stroke:black;stroke-width:0.5px;stroke-linejoin:miter;stroke-miterlimit:4;"/>
        </g>
    </g>
</svg>
