<svg id="Box_Icon" data-name="Box Icon" xmlns="http://www.w3.org/2000/svg" xmlns:xlink="http://www.w3.org/1999/xlink" width="23" height="23" viewBox="0 0 23 23">
  <defs>
    <clipPath id="clip-path">
      <path id="Path_63" data-name="Path 63" d="M20.785-16.1,19.1-20.4a.4.4,0,0,0-.087-.116.1.1,0,0,0-.058-.029l-.058-.058L10.272-24.5,1.851-20.576c-.029,0-.029.029-.058.058-.029,0-.029.029-.058.029-.029.029-.058.058-.058.087v.029L.021-16.1a.364.364,0,0,0,.2.465L1.677-15v5.372a.357.357,0,0,0,.2.319l8.363,3.746h.029a.218.218,0,0,0,.145.029h.145L18.926-9.28a.314.314,0,0,0,.2-.319v-5.372l1.452-.639A.386.386,0,0,0,20.785-16.1ZM10.272-20.289v3.34l-7.841-3.34,7.841-3.63Zm-8.044.526,7.7,3.427L8.53-12.707l-7.7-3.456ZM2.4-14.652l6.185,2.759a.262.262,0,0,0,.145.029.262.262,0,0,0,.145-.029.351.351,0,0,0,.2-.2l.958-2.5v8.16L2.4-9.832Zm16,4.821-7.637,3.4v-8.16l.958,2.5a.351.351,0,0,0,.2.2.262.262,0,0,0,.145.029.262.262,0,0,0,.145-.029L18.4-14.652Zm.145-9.9,1.423,3.572-7.7,3.456-1.423-3.6Zm-7.841-4.04,7.55,3.488L10.737-16.95v-3.34Z" transform="translate(0 24.5)" fill="#245b77"/>
    </clipPath>
  </defs>
  <g id="Group_91" data-name="Group 91" transform="translate(1 2)">
    <g id="Group_87" data-name="Group 87" transform="translate(0)" clip-path="url(#clip-path)">
      <path id="Path_62" data-name="Path 62" d="M-1-25.5H21.423V-4.953H-1Z" transform="translate(0.21 24.71)" fill="#245b77"/>
    </g>
  </g>
  <rect id="Boundary" width="23" height="23" fill="none"/>
</svg>
