<svg id="folder_icon" data-name="folder icon" xmlns="http://www.w3.org/2000/svg" xmlns:xlink="http://www.w3.org/1999/xlink" width="25" height="25" viewBox="0 0 25 25">
  <defs>
    <clipPath id="clip-path">
      <path id="Path_80" data-name="Path 80" d="M21.508-45.782H15.739l-2.011-2.307a.492.492,0,0,0-.371-.169H7.14l-.54-.584A.492.492,0,0,0,6.238-49H1.492A.492.492,0,0,0,1-48.508v14.816a.492.492,0,0,0,.492.492H21.508A.492.492,0,0,0,22-33.692v-11.6A.492.492,0,0,0,21.508-45.782Zm-8.375-1.491,1.3,1.491H9.425L8.048-47.273Zm7.883,13.089H1.984V-48.016H6.023l2.825,3.06a.492.492,0,0,0,.362.158H21.016Z" transform="translate(-1 49)" fill="#245b77"/>
    </clipPath>
  </defs>
  <rect id="Rectangle_41" data-name="Rectangle 41" width="25" height="25" fill="none"/>
  <g id="Group_163" data-name="Group 163" transform="translate(1 54)">
    <g id="Group_160" data-name="Group 160" transform="translate(1 -49)" clip-path="url(#clip-path)">
      <path id="Path_79" data-name="Path 79" d="M0-50H21.656v16.456H0Z" transform="translate(-0.328 49.672)" fill="#245b77"/>
    </g>
    <g id="Group_161" data-name="Group 161" transform="translate(1 -49)">
      <path id="Path_81" data-name="Path 81" d="M20.508,3.218H14.739L12.728.911a.492.492,0,0,0-.371-.169H6.14L5.6.158A.492.492,0,0,0,5.238,0H.492A.492.492,0,0,0,0,.492V15.308a.492.492,0,0,0,.492.492H20.508A.492.492,0,0,0,21,15.308V3.71A.492.492,0,0,0,20.508,3.218ZM12.133,1.727l1.3,1.491H8.425L7.048,1.727Zm7.883,13.089H.984V.984H5.023l2.825,3.06A.492.492,0,0,0,8.21,4.2H20.016Z" fill="#245b77" stroke="#245b77" stroke-width="0.5"/>
    </g>
  </g>
</svg>
