<?xml version="1.0" encoding="UTF-8" standalone="no"?>
<!DOCTYPE svg PUBLIC "-//W3C//DTD SVG 1.1//EN" "http://www.w3.org/Graphics/SVG/1.1/DTD/svg11.dtd">
<svg width="100%" height="100%" viewBox="0 0 25 25" version="1.1" xmlns="http://www.w3.org/2000/svg" xmlns:xlink="http://www.w3.org/1999/xlink" xml:space="preserve" xmlns:serif="http://www.serif.com/" style="fill-rule:evenodd;clip-rule:evenodd;stroke-linejoin:round;stroke-miterlimit:2;">
    <g transform="matrix(0.789223,0,0,0.789223,2.2401,2.23102)">
        <g id="Group_16">
            <g id="Group_18">
                <clipPath id="_clip1">
                    <path d="M12.952,0C12.111,0 11.299,0.313 10.675,0.878L2.136,8.613C0.777,9.845 0,11.596 0,13.43L0,24.723C0.057,25.398 0.586,25.945 1.259,26.023L9.237,26.023C9.949,25.981 10.527,25.412 10.578,24.7L10.578,17.634C10.589,16.936 11.123,16.35 11.817,16.273L14.1,16.273C14.795,16.291 15.369,16.839 15.42,17.532L15.42,24.744C15.466,25.42 16.004,25.967 16.679,26.024L24.657,26.024C25.371,26.005 25.958,25.436 26,24.723L26,13.438C26,11.593 25.215,9.832 23.842,8.6L15.233,0.873C14.606,0.311 13.794,-0 12.952,0ZM18.378,23.094L18.378,14.644C18.378,14.644 18.622,13.344 17.078,13.344L9.1,13.344C9.1,13.344 7.622,13.244 7.622,14.644L7.622,23.094L2.93,23.094L2.93,12.571C2.93,11.835 3.243,11.132 3.79,10.639L11.867,3.365C12.178,3.085 12.582,2.93 13,2.93C13.418,2.93 13.822,3.085 14.134,3.364L22.206,10.6C22.756,11.093 23.07,11.798 23.07,12.536L23.07,23.094L18.378,23.094Z"/>
                </clipPath>
                <g clip-path="url(#_clip1)">
                    <g id="Path_13" transform="matrix(1,0,0,1,-0.3,20.7)">
                        <rect x="-1" y="-22" width="28.6" height="28.623" style="fill:#335974;fill-rule:nonzero;"/>
                    </g>
                </g>
            </g>
        </g>
    </g>
</svg>
