<svg id="Reports_Icon" data-name="Reports Icon" xmlns="http://www.w3.org/2000/svg" xmlns:xlink="http://www.w3.org/1999/xlink" width="25" height="25" viewBox="0 0 25 25">
  <defs>
    <style>
      .cls-1, .cls-4 {
        fill: #245b77;
      }

      .cls-2 {
        fill: none;
      }

      .cls-3 {
        clip-path: url(#clip-path);
      }

      .cls-4 {
        stroke: #245b77;
        stroke-width: 0.5px;
      }
    </style>
    <clipPath id="clip-path">
      <path id="Path_9" data-name="Path 9" class="cls-1" d="M1.463-25A.481.481,0,0,0,1-24.537V-4.63a.482.482,0,0,0,.463.463H16.741A.481.481,0,0,0,17.2-4.63V-21.3a.464.464,0,0,0-.137-.326l-3.241-3.241A.468.468,0,0,0,13.5-25Zm.463.926H13.037V-21.3a.475.475,0,0,0,.463.463h2.778V-5.093H1.926Zm12.037.658,1.657,1.657H13.963Zm-9.778,5.36c-.445,0-.58.207-.58.463s.135.463.58.463H14.309c.445,0,.58-.207.58-.463s-.135-.463-.58-.463Zm0,3.906c-.445,0-.58.207-.58.463s.135.463.58.463H14.309c.445,0,.58-.207.58-.463s-.135-.463-.58-.463Zm0,3.906c-.445,0-.58.207-.58.463s.135.463.58.463H14.309c.445,0,.58-.207.58-.463s-.135-.463-.58-.463Z" transform="translate(-1 25)"/>
    </clipPath>
  </defs>
  <rect id="Rectangle_6" data-name="Rectangle 6" class="cls-2" width="25" height="25"/>
  <g id="Group_10" data-name="Group 10" transform="translate(4.398 2.083)">
    <g id="Group_8" data-name="Group 8" class="cls-3">
      <path id="Path_8" data-name="Path 8" class="cls-1" d="M0-26H17.94V-3.431H0Z" transform="translate(-0.868 25.132)"/>
    </g>
    <g id="Group_9" data-name="Group 9">
      <path id="Path_10" data-name="Path 10" class="cls-4" d="M.463,0A.481.481,0,0,0,0,.463V20.37a.482.482,0,0,0,.463.463H15.741a.481.481,0,0,0,.463-.463V3.7a.464.464,0,0,0-.137-.326L12.826.137A.468.468,0,0,0,12.5,0ZM.926.926H12.037V3.7a.475.475,0,0,0,.463.463h2.778V19.907H.926Zm12.037.658,1.657,1.657H12.963ZM3.185,6.944c-.445,0-.58.207-.58.463s.135.463.58.463H13.309c.445,0,.58-.207.58-.463s-.135-.463-.58-.463Zm0,3.906c-.445,0-.58.207-.58.463s.135.463.58.463H13.309c.445,0,.58-.207.58-.463s-.135-.463-.58-.463Zm0,3.906c-.445,0-.58.207-.58.463s.135.463.58.463H13.309c.445,0,.58-.207.58-.463s-.135-.463-.58-.463Z"/>
    </g>
  </g>
</svg>
