<svg id="Return_Icon" data-name="Return Icon" xmlns="http://www.w3.org/2000/svg" xmlns:xlink="http://www.w3.org/1999/xlink" width="25" height="25" viewBox="0 0 25 25">
  <defs>
    <clipPath id="clip-path">
      <path id="Path_46" data-name="Path 46" d="M.544-3.735c.528,0,.527.366.527.894v-.407A2.2,2.2,0,0,0,3.248-1.071H9.98a2.342,2.342,0,0,0,2.178-2.178v-14.5A2.342,2.342,0,0,0,9.98-19.929H3.248a2.2,2.2,0,0,0-2.178,2.178v-.225c0,.528,0,1.017-.527,1.017S0-17.449,0-17.977v.225A3.248,3.248,0,0,1,3.248-21H9.98a3.248,3.248,0,0,1,3.248,3.248v14.5A3.248,3.248,0,0,1,9.98,0H3.248A3.248,3.248,0,0,1,0-3.248v.407C0-3.369.017-3.735.544-3.735Z" transform="translate(0 21)" fill="#245b77"/>
    </clipPath>
    <clipPath id="clip-path-2">
      <path id="Path_48" data-name="Path 48" d="M9.842-15.319a.955.955,0,0,1,.7-.217.955.955,0,0,1,.648.342.955.955,0,0,1,.222.7.955.955,0,0,1-.337.65L8.113-11.373H20.019a.955.955,0,0,1,.955.955.955.955,0,0,1-.955.955H8.094L11.065-7a.957.957,0,0,1,.124,1.347.957.957,0,0,1-1.347.124l-4.1-3.382a1.911,1.911,0,0,1-.7-1.481,1.911,1.911,0,0,1,.7-1.481Z" transform="translate(-5.04 15.54)" fill="#245b77"/>
    </clipPath>
  </defs>
  <rect id="Boundary" width="25" height="25" fill="none"/>
  <g id="Icon" transform="translate(2.026 2)">
    <g id="Group_43" data-name="Group 43" transform="translate(7.746)" clip-path="url(#clip-path)">
      <path id="Path_45" data-name="Path 45" d="M14.228-22H-1V1H14.228Z" transform="translate(0 21)" fill="#245b77"/>
    </g>
    <g id="Group_44" data-name="Group 44" transform="translate(0 5.46)" clip-path="url(#clip-path-2)">
      <path id="Path_47" data-name="Path 47" d="M21.974-16.559H4.04V-4.188H21.974Z" transform="translate(-5.04 15.54)" fill="#245b77"/>
    </g>
  </g>
</svg>
