<svg id="Update_Icon" data-name="Update Icon" xmlns="http://www.w3.org/2000/svg" xmlns:xlink="http://www.w3.org/1999/xlink" width="25" height="25" viewBox="0 0 25 25">
  <defs>
    <clipPath id="clip-path">
      <path id="Path_36" data-name="Path 36" d="M20.891-23.455l-1.013-1.013A1.816,1.816,0,0,0,18.561-25a1.973,1.973,0,0,0-1.317.532l-.709.709L10.3-17.528a.407.407,0,0,0-.127.279L9.721-13.83a.467.467,0,0,0,.127.405.419.419,0,0,0,.329.127h.051l3.445-.456a.483.483,0,0,0,.253-.127l6.231-6.231h0l.709-.709a1.816,1.816,0,0,0,.532-1.317A1.7,1.7,0,0,0,20.891-23.455Zm-1.722,2.989-5.522,5.522-.811-.811,5.522-5.522Zm-6.991,4.053-.811-.811,5.522-5.522.811.811Zm-1.19.152.836.836h0l.836.836-1.95.253ZM20.232-21.5l-.38.38-1.14-1.14h0l-1.14-1.14.38-.38a.879.879,0,0,1,.633-.253.9.9,0,0,1,.633.253l1.013,1.013h0a.879.879,0,0,1,.253.633A1,1,0,0,1,20.232-21.5ZM.451-13.754a.481.481,0,0,1,.481-.481H7.543a.481.481,0,0,1,.481.481.481.481,0,0,1-.481.481H.932A.466.466,0,0,1,.451-13.754Zm14.032,2.812a.481.481,0,0,1-.481.481H.881A.481.481,0,0,1,.4-10.942a.481.481,0,0,1,.481-.481H14A.5.5,0,0,1,14.483-10.942Zm0,2.837A.481.481,0,0,1,14-7.624H.881A.481.481,0,0,1,.4-8.106a.466.466,0,0,1,.481-.481H14A.466.466,0,0,1,14.483-8.106Zm0,2.812A.481.481,0,0,1,14-4.813H.881A.481.481,0,0,1,.4-5.294a.481.481,0,0,1,.481-.481H14A.466.466,0,0,1,14.483-5.294Z" transform="translate(-0.4 25)" fill="#245b77"/>
    </clipPath>
  </defs>
  <rect id="Boundary" width="25" height="25" fill="none"/>
  <g id="Icon" transform="translate(1.6 28)">
    <g id="Group_38" data-name="Group 38" transform="translate(0.4 -25)" clip-path="url(#clip-path)">
      <path id="Path_35" data-name="Path 35" d="M-.6-26H22.038V-4.2H-.6Z" transform="translate(-0.207 25.193)" fill="#245b77"/>
    </g>
  </g>
</svg>
