<svg id="view_icon" data-name="view icon" xmlns="http://www.w3.org/2000/svg" xmlns:xlink="http://www.w3.org/1999/xlink" width="23" height="23" viewBox="0 0 23 23">
  <defs>
    <clipPath id="clip-path">
      <path id="Path_72" data-name="Path 72" d="M1.439-26A.472.472,0,0,0,1-25.561V-7.119a.456.456,0,0,0,.439.439H15.49a.456.456,0,0,0,.439-.439V-20.731a.448.448,0,0,0-.13-.316l-4.83-4.83A.444.444,0,0,0,10.66-26Zm.439.878h8.343v4.391a.439.439,0,0,0,.439.439h4.391V-7.558H1.878V-25.122ZM11.1-24.5l3.334,3.334H11.1ZM8.465-17a5.379,5.379,0,0,0-4.775,2.641.447.447,0,0,0,0,.418A5.381,5.381,0,0,0,8.465-11.29a5.381,5.381,0,0,0,4.775-2.648.447.447,0,0,0,0-.418A5.379,5.379,0,0,0,8.465-17ZM6.708-15.8a2.409,2.409,0,0,0-.659,1.653,2.409,2.409,0,0,0,.659,1.653,4.3,4.3,0,0,1-2.093-1.653A4.273,4.273,0,0,1,6.708-15.8Zm3.513,0a4.291,4.291,0,0,1,2.093,1.653,4.3,4.3,0,0,1-2.093,1.653,2.409,2.409,0,0,0,.659-1.653A2.409,2.409,0,0,0,10.221-15.8Zm-1.756.117A1.53,1.53,0,0,1,10-14.145a1.53,1.53,0,0,1-1.537,1.537,1.53,1.53,0,0,1-1.537-1.537A1.53,1.53,0,0,1,8.465-15.681Z" transform="translate(-1 26)" fill="#245b77" stroke="#245b77" stroke-width="0.25"/>
    </clipPath>
  </defs>
  <rect id="Boundary" width="23" height="23" fill="none"/>
  <g id="Group_115" data-name="Group 115" transform="translate(3.68 1.84)">
    <g id="Group_113" data-name="Group 113" transform="translate(0 0)" clip-path="url(#clip-path)">
      <path id="Path_71" data-name="Path 71" d="M0-27H16.475V-6.135H0Z" transform="translate(-0.773 26.227)" fill="#245b77" stroke="#245b77" stroke-width="0.25"/>
    </g>
    <g id="Group_114" data-name="Group 114">
      <path id="Path_73" data-name="Path 73" d="M.439,0A.472.472,0,0,0,0,.439V18.881a.456.456,0,0,0,.439.439H14.49a.456.456,0,0,0,.439-.439V5.269a.448.448,0,0,0-.13-.316L9.969.124A.444.444,0,0,0,9.66,0ZM.878.878H9.221V5.269a.439.439,0,0,0,.439.439h4.391V18.442H.878V.878ZM10.1,1.5,13.433,4.83H10.1ZM7.465,9a5.379,5.379,0,0,0-4.775,2.641.447.447,0,0,0,0,.418A5.381,5.381,0,0,0,7.465,14.71a5.381,5.381,0,0,0,4.775-2.648.447.447,0,0,0,0-.418A5.379,5.379,0,0,0,7.465,9ZM5.708,10.2a2.4,2.4,0,0,0,0,3.307,4.3,4.3,0,0,1-2.093-1.653A4.273,4.273,0,0,1,5.708,10.2Zm3.513,0a4.291,4.291,0,0,1,2.093,1.653,4.3,4.3,0,0,1-2.093,1.653,2.4,2.4,0,0,0,0-3.307Zm-1.756.117a1.537,1.537,0,1,1-1.537,1.537A1.53,1.53,0,0,1,7.465,10.319Z" transform="translate(0 0)" fill="#245b77" stroke="#245b77" stroke-width="0.25"/>
    </g>
  </g>
</svg>
